<?xml version="1.0" standalone="no"?>
<!DOCTYPE svg PUBLIC "-//W3C//DTD SVG 20010904//EN"
 "http://www.w3.org/TR/2001/REC-SVG-20010904/DTD/svg10.dtd">
<svg version="1.0" xmlns="http://www.w3.org/2000/svg"
 width="700.000000pt" height="700.000000pt" viewBox="0 0 700.000000 700.000000"
 preserveAspectRatio="xMidYMid meet">
<metadata>
Created by potrace 1.11, written by Peter Selinger 2001-2013
</metadata>
<g transform="translate(0.000000,700.000000) scale(0.100000,-0.100000)"
fill="#000000" stroke="none">
<path d="M1048 5975 c-2 -1 -42 -5 -89 -9 -87 -6 -319 -60 -394 -91 -139 -58
-287 -143 -350 -200 -95 -86 -143 -133 -179 -178 l-39 -48 219 -217 c270 -268
342 -335 475 -442 377 -303 818 -484 1290 -527 166 -16 621 -7 671 12 47 18
339 -301 463 -505 37 -61 37 -62 27 -118 -17 -85 -26 -230 -26 -387 1 -134 11
-343 19 -354 1 -3 6 -33 9 -66 11 -103 69 -360 96 -430 4 -11 20 -56 36 -100
130 -376 400 -720 739 -939 161 -104 446 -231 585 -261 8 -1 33 -8 55 -13 67
-18 188 -41 246 -48 30 -3 65 -8 79 -10 138 -23 583 -23 760 1 248 33 457 88
610 161 148 71 325 200 457 335 142 146 186 206 185 250 -1 53 -80 152 -126
161 -27 5 -37 1 -114 -49 -209 -137 -454 -221 -720 -249 -32 -3 -86 -9 -122
-13 -108 -13 -438 -11 -540 4 -261 37 -438 98 -610 210 -320 209 -524 553
-614 1040 -2 11 -7 45 -11 75 -3 30 -8 66 -10 80 -11 80 -19 282 -16 405 1 22
6 47 11 55 8 13 179 15 1397 15 1531 1 1413 -4 1456 65 20 32 22 49 23 180 0
80 -3 167 -8 195 -4 27 -11 70 -14 95 -5 36 -26 133 -58 261 -18 70 -79 223
-128 316 -191 370 -508 649 -898 792 -200 73 -396 105 -645 105 -397 1 -695
-75 -1039 -263 -322 -176 -625 -489 -809 -833 -81 -151 -173 -389 -193 -493
l-7 -39 -16 24 c-84 127 -292 353 -442 481 -30 26 -81 70 -114 99 -33 28 -121
98 -195 154 -365 277 -629 419 -995 536 -17 5 -52 13 -78 16 -26 4 -49 10 -52
14 -12 19 245 -34 383 -79 180 -59 370 -145 582 -262 148 -82 422 -267 624
-420 l28 -22 -5 39 c-3 21 -11 62 -17 89 -7 28 -13 57 -15 65 -18 89 -95 285
-147 380 -151 270 -338 475 -587 642 -110 73 -304 172 -406 206 -104 35 -189
60 -220 66 -171 30 -228 37 -342 40 -73 2 -134 2 -135 1z m4287 -788 c211 -38
411 -176 539 -372 48 -74 68 -110 110 -207 24 -54 64 -214 71 -288 9 -78 8
-263 0 -322 -8 -57 -33 -98 -74 -122 -32 -18 -62 -19 -927 -19 -669 0 -898 3
-907 12 -30 30 -9 286 39 469 9 31 18 67 20 79 8 42 56 168 91 238 148 296
387 480 686 529 73 12 293 14 352 3z"/>
</g>
</svg>
