<?xml version="1.0" encoding="iso-8859-1"?>
<!-- Generator: Adobe Illustrator 16.0.0, SVG Export Plug-In . SVG Version: 6.00 Build 0)  -->
<!DOCTYPE svg PUBLIC "-//W3C//DTD SVG 1.1//EN" "http://www.w3.org/Graphics/SVG/1.1/DTD/svg11.dtd">
<svg version="1.1" id="Capa_1" xmlns="http://www.w3.org/2000/svg" xmlns:xlink="http://www.w3.org/1999/xlink" x="0px" y="0px"
	 width="60.231px" height="60.231px" viewBox="0 0 105.231 105.231" style="enable-background:new 0 0 105.231 105.231;"
	 xml:space="preserve">
<g>
	<path d="M102.042,76.249c-2.498,1.804-5.249,3.005-8.254,3.607s-6.105,0.896-9.302,0.896c-3.189,0-6.159-0.473-8.911-1.42
		c-2.751-0.948-5.16-2.484-7.217-4.61c-2.057-2.128-3.68-4.894-4.856-8.295c-1.185-3.395-1.772-7.576-1.772-12.519
		c0-0.465,0.027-0.858,0.075-1.177c0.048-0.328,0.298-0.486,0.76-0.486h40.521c1.434,0,2.146-0.999,2.146-2.984
		c0-3.932-0.637-7.563-1.902-10.895c-1.27-3.33-3.066-6.206-5.376-8.639c-2.313-2.425-5.089-4.324-8.326-5.691
		c-3.237-1.362-6.845-2.043-10.828-2.043c-4.716,0-9.041,0.891-12.97,2.671c-3.932,1.779-7.296,4.199-10.094,7.25
		c-2.799,3.053-4.986,6.638-6.557,10.751c-0.473,1.239-0.847,2.51-1.185,3.8c-1.552-2.293-3.454-4.601-5.785-6.606
		c-0.291-0.274-0.605-0.561-0.946-0.862c-2.197-1.966-5.26-4.461-8.547-6.622c-1.645-1.093-3.357-2.069-5.001-2.919
		c-0.837-0.387-1.649-0.761-2.415-1.112c-0.802-0.298-1.545-0.582-2.245-0.84c-0.715-0.196-1.371-0.378-1.953-0.539
		c-0.575-0.189-1.1-0.219-1.535-0.303c-0.855-0.135-1.35-0.221-1.35-0.221s0.498,0.043,1.364,0.113
		c0.435,0.048,0.974,0.038,1.567,0.181c0.602,0.116,1.271,0.247,2.01,0.39c0.722,0.209,1.507,0.435,2.334,0.676
		c0.806,0.294,1.665,0.606,2.555,0.936c1.728,0.732,3.554,1.588,5.313,2.565c3.525,1.945,6.844,4.233,9.252,6.066
		c0.486,0.371,0.927,0.715,1.334,1.04c-0.04-0.375-0.091-0.784-0.197-1.205c-0.178-0.898-0.389-2.012-0.775-3.146
		c-0.368-1.153-0.86-2.356-1.471-3.621c-1.251-2.464-3.01-5.056-5.344-7.272c-1.138-1.142-2.445-2.161-3.84-3.09
		c-1.371-0.95-2.928-1.713-4.469-2.435c-1.595-0.659-3.254-1.203-4.919-1.608c-1.731-0.347-3.414-0.614-5.133-0.642
		c-1.742,0.007-3.369,0.027-4.998,0.357c-1.625,0.329-3.119,0.705-4.491,1.241c-1.395,0.599-2.628,1.241-3.677,1.893
		c-1.041,0.62-1.93,1.518-2.615,2.124c-0.689,0.595-1.184,1.271-1.52,1.643C0.164,23.05,0,23.305,0,23.305s0.204,0.221,0.588,0.635
		c0.372,0.354,0.907,1,1.535,1.559c0.588,0.582,1.307,1.293,2.126,2.113c0.789,0.799,1.622,1.608,2.474,2.387
		c0.863,0.802,1.77,1.688,2.699,2.435c0.926,0.758,1.906,1.615,2.909,2.276c2.014,1.455,4.22,2.687,6.595,3.692
		c1.188,0.551,2.424,0.922,3.684,1.347c1.258,0.399,2.562,0.676,3.873,0.946c1.321,0.224,2.642,0.426,3.973,0.519
		c1.338,0.087,2.631,0.164,3.911,0.139c1.271-0.003,2.505-0.072,3.636-0.171c0.779-0.051,1.514-0.154,2.202-0.255
		c3.051,2.481,5.395,5.554,7.151,8.466C47,51.5,46.81,53.674,46.81,55.915c0,4.859,0.683,9.356,2.046,13.497
		c1.367,4.141,3.445,7.724,6.246,10.752c2.794,3.032,6.298,5.4,10.508,7.111c4.209,1.711,9.157,2.566,14.849,2.566
		c5.595,0,10.27-0.766,14.014-2.289c3.743-1.57,7.169-4.302,10.267-8.186c0.65-0.695,0.533-1.551-0.346-2.57
		C103.568,75.743,102.781,75.555,102.042,76.249z M62.29,43.431c0.274-2.173,0.76-4.24,1.458-6.206
		c0.691-1.966,1.667-3.701,2.909-5.203c1.252-1.504,2.785-2.705,4.616-3.61c1.824-0.9,4.035-1.349,6.622-1.349
		c2.04,0,3.874,0.428,5.517,1.282c1.643,0.859,3.032,2.002,4.161,3.434c1.137,1.434,2.013,3.066,2.643,4.892
		c0.622,1.828,0.934,3.733,0.934,5.724c0,0.689-0.01,1.328-0.034,1.906c-0.023,0.579-0.106,1.087-0.243,1.528
		c-0.137,0.438-0.383,0.785-0.726,1.04c-0.349,0.257-0.869,0.382-1.56,0.382H62.708c-0.369,0-0.582-0.361-0.63-1.075
		C62.034,45.457,62.102,44.542,62.29,43.431z"/>
</g>
<g>
</g>
<g>
</g>
<g>
</g>
<g>
</g>
<g>
</g>
<g>
</g>
<g>
</g>
<g>
</g>
<g>
</g>
<g>
</g>
<g>
</g>
<g>
</g>
<g>
</g>
<g>
</g>
<g>
</g>
</svg>
